<svg width="41" height="41" viewBox="0 0 41 41" fill="none" xmlns="http://www.w3.org/2000/svg">
<path d="M25.5447 16.0258L24.8477 13.8698L26.6807 12.5288C27.4324 11.9821 27.7314 11.0562 27.4427 10.173C27.1796 9.35984 26.457 8.54154 25.4388 8.54154H23.177L22.5073 6.58892C22.222 5.69888 21.4345 5.12488 20.4983 5.12488C19.5621 5.12488 18.7746 5.70059 18.4961 6.57354L17.8196 8.54154H15.5595C14.543 8.54154 13.8204 9.35984 13.5539 10.173C13.2669 11.0562 13.5659 11.9804 14.3141 12.5271L16.1489 13.8698L15.4536 16.0258C15.1649 16.9158 15.4707 17.84 16.2257 18.385C16.9689 18.9214 17.9665 18.918 18.708 18.3747L20.4983 17.0576L22.2886 18.373C22.6662 18.6515 23.1018 18.7898 23.5357 18.7898C23.9645 18.7898 24.3933 18.6566 24.7691 18.3867C25.5242 17.8434 25.8283 16.9175 25.543 16.0258H25.5447ZM23.7732 16.9978C23.6143 17.114 23.4554 17.1123 23.3017 16.9978L21.0057 15.3117C20.8553 15.2023 20.6777 15.146 20.5 15.146C20.3223 15.146 20.1447 15.2006 19.9943 15.3117L17.6983 16.9978C17.5514 17.1037 17.3703 17.1054 17.2268 16.9978C17.0697 16.8868 17.0201 16.7364 17.0799 16.5502L17.9665 13.8066C18.0793 13.4564 17.9563 13.072 17.6573 12.8551L15.3238 11.1485C15.1683 11.0357 15.1205 10.8837 15.1785 10.7026C15.2691 10.4293 15.469 10.2482 15.5612 10.2482H18.4329C18.7985 10.2482 19.1214 10.0158 19.241 9.67075L20.1225 7.10825C20.2386 6.74096 20.7597 6.72388 20.8895 7.12534L21.7625 9.67075C21.8803 10.0158 22.2049 10.2482 22.5705 10.2482H25.4439C25.5362 10.2482 25.7343 10.4275 25.8249 10.7026C25.883 10.8837 25.8351 11.034 25.6797 11.1485L23.3461 12.8551C23.0471 13.072 22.9241 13.4564 23.0369 13.8083L23.9235 16.5485C23.9833 16.7347 23.9355 16.885 23.7783 16.9978H23.7732ZM25.6643 27.3127C36.9683 27.0103 41 21.0038 41 15.9079C41 13.125 38.9756 10.817 36.3243 10.349C36.7428 9.35642 37.093 8.40829 37.3425 7.56438C37.8686 5.78771 37.527 3.90854 36.408 2.41034C35.2634 0.877961 33.5107 -0.00183105 31.6007 -0.00183105H9.39583C7.48592 -0.00183105 5.73146 0.877961 4.58858 2.41034C3.46963 3.90854 3.12967 5.78771 3.65412 7.56438C3.90354 8.40659 4.25375 9.35642 4.67229 10.349C2.02267 10.8188 0 13.1267 0 15.9079C0 21.0038 4.02996 27.0103 15.3357 27.3127C15.3545 27.557 15.375 27.8013 15.375 28.049V35.019C15.375 39.1395 11.5381 39.2864 11.1008 39.2898H9.39583C8.92433 39.2898 8.54167 39.6725 8.54167 40.144C8.54167 40.6155 8.92433 40.9982 9.39583 40.9982H31.6042C32.0757 40.9982 32.4583 40.6155 32.4583 40.144C32.4583 39.6725 32.0757 39.2898 31.6042 39.2898H29.8993C29.4619 39.2864 25.625 39.1395 25.625 35.019V28.049C25.625 27.8013 25.6455 27.557 25.6643 27.3127ZM39.2917 15.9079C39.2917 20.3888 35.7622 25.2183 25.9633 25.589C26.4467 23.7953 27.4427 22.1758 28.8743 20.9577C31.8109 18.4601 34.0556 15.0862 35.576 11.9804C37.6431 12.1051 39.2917 13.8083 39.2917 15.9079ZM1.70833 15.9079C1.70833 13.8118 3.35346 12.1085 5.41883 11.9821C6.94096 15.0879 9.18571 18.4584 12.124 20.9577C13.5556 22.1758 14.5516 23.7953 15.0368 25.589C5.23775 25.2183 1.70833 20.3888 1.70833 15.9079ZM15.4075 39.2915C16.3693 38.3673 17.0833 37.0178 17.0833 35.0207V28.0507C17.0833 24.7998 15.6808 21.7401 13.2327 19.6577C9.06783 16.1197 6.35329 10.6701 5.29242 7.08263C4.92 5.827 5.16429 4.49621 5.95696 3.43534C6.77696 2.33688 8.03088 1.70821 9.39754 1.70821H31.6007C32.9674 1.70821 34.2196 2.33688 35.0413 3.43534C35.834 4.49621 36.0766 5.82529 35.7059 7.08263C34.645 10.6735 31.9287 16.1214 27.769 19.6577C25.3209 21.7401 23.9184 24.7998 23.9184 28.0507V35.0207C23.9184 37.0178 24.6325 38.3673 25.5943 39.2915H15.4109H15.4075Z" fill="#D12923"/>
</svg>
