<svg width="40" height="40" viewBox="0 0 40 40" fill="none" xmlns="http://www.w3.org/2000/svg">
<path d="M25.8333 23.3333C25.3733 23.3333 25 23.7067 25 24.1667V28.3333H1.66667V7.5C1.66667 4.28333 4.28333 1.66667 7.5 1.66667H19.1667C22.3833 1.66667 25 4.28333 25 7.5C25 7.96 25.3733 8.33333 25.8333 8.33333C26.2933 8.33333 26.6667 7.96 26.6667 7.5C26.6667 3.365 23.3017 0 19.1667 0H7.5C3.365 0 0 3.365 0 7.5V32.5C0 36.635 3.365 40 7.5 40H19.1667C23.3017 40 26.6667 36.635 26.6667 32.5V24.1667C26.6667 23.7067 26.2933 23.3333 25.8333 23.3333ZM19.1667 38.3333H7.5C4.28333 38.3333 1.66667 35.7167 1.66667 32.5V30H25V32.5C25 35.7167 22.3833 38.3333 19.1667 38.3333ZM40 32.5C40 32.96 39.6267 33.3333 39.1667 33.3333C35.7267 33.3333 32.8117 31.2617 31.5617 27.9267L28.59 20H21.0133C18.8917 20 17.0483 18.5067 16.725 16.5283C16.5267 15.305 16.8667 14.0683 17.6617 13.135C18.4567 12.2017 19.6117 11.6667 20.8367 11.6667H33.21L33.3217 11.4367C33.3217 11.4367 31.0767 8.61167 31.0733 8.60667C29.5667 6.92667 29.6667 4.33667 31.3233 2.79167C33.0017 1.22333 35.6367 1.30167 37.1967 2.96833L39.7767 5.70167C39.9217 5.855 40.0017 6.05833 40.0017 6.27C40.0017 7.01667 39.09 7.38167 38.575 6.84L35.99 4.11833C35.0533 3.12 33.4667 3.07 32.46 4.01167C31.4567 4.94667 31.4017 6.52667 32.3383 7.53667C32.345 7.54333 34.625 10.4017 34.625 10.4017C35.0617 10.95 35.1433 11.6833 34.8383 12.3133C34.5333 12.945 33.91 13.3367 33.2083 13.3367H20.835C20.1017 13.3367 19.4067 13.6583 18.93 14.2183C18.4467 14.7867 18.2483 15.5117 18.37 16.2633C18.5617 17.445 19.6983 18.3367 21.0133 18.3367H29.1683C29.515 18.3367 29.8267 18.5517 29.9483 18.8767L33.1233 27.3433C34.1233 30.0117 36.44 31.67 39.1683 31.67C39.6283 31.67 40.0017 32.0433 40.0017 32.5033L40 32.5ZM15.8333 35H10.8333C10.3733 35 10 34.6267 10 34.1667C10 33.7067 10.3733 33.3333 10.8333 33.3333H15.8333C16.2933 33.3333 16.6667 33.7067 16.6667 34.1667C16.6667 34.6267 16.2933 35 15.8333 35Z" fill="#D12923"/>
</svg>
