<svg width="40" height="40" viewBox="0 0 40 40" fill="none" xmlns="http://www.w3.org/2000/svg">
<g clip-path="url(#clip0_49_19458)">
<path d="M39.9318 33.28L38.1368 21.6133C37.8201 19.5517 36.4135 17.805 34.4668 17.055C34.0401 16.8883 33.5551 17.1033 33.3901 17.5333C33.2251 17.9633 33.4385 18.445 33.8685 18.61C35.2585 19.145 36.2635 20.3933 36.4901 21.8667L37.4851 28.3333H2.51681L3.51181 21.8667C3.73847 20.3933 4.74347 19.145 6.13347 18.61C6.56347 18.4433 6.7768 17.9617 6.6118 17.5333C6.44514 17.1033 5.96181 16.8933 5.53514 17.055C3.59014 17.805 2.18181 19.5517 1.86514 21.6133L0.0701387 33.28C-0.189861 34.965 0.298472 36.6717 1.40847 37.9667C2.51847 39.2583 4.1318 40.0017 5.83514 40.0017H34.1668C35.8701 40.0017 37.4851 39.26 38.5951 37.9667C39.7035 36.6733 40.1901 34.965 39.9318 33.28ZM37.7351 29.9667V29.9733C37.7351 29.9733 37.7285 29.97 37.7351 29.9667ZM2.26514 29.9667C2.26514 29.9667 2.27181 29.9717 2.26514 29.9733V29.9667ZM11.7685 38.3333H5.83514C4.61847 38.3333 3.46514 37.8033 2.67347 36.88C1.88014 35.955 1.53347 34.7367 1.71847 33.5333L2.26181 30H12.8151L11.7685 38.3333ZM13.4485 38.3333L14.4935 30H25.5068L26.5518 38.3333H13.4468H13.4485ZM37.3285 36.88C36.5351 37.8033 35.3835 38.3333 34.1668 38.3333H28.2335L27.1885 30H37.7435L38.2868 33.5333C38.4718 34.7367 38.1218 35.955 37.3301 36.88H37.3285ZM17.0668 24.6367C17.8801 25.4317 18.9468 25.8267 20.0118 25.8267C21.0651 25.8267 22.1151 25.4383 22.9051 24.665L28.2501 19.9167C30.4535 17.7133 31.6685 14.7833 31.6685 11.6667C31.6685 8.55 30.4535 5.62167 28.2501 3.41667C26.0485 1.21333 23.1185 0 20.0018 0C16.8851 0 13.9568 1.21333 11.7518 3.41667C9.54681 5.62 8.33514 8.55 8.33514 11.6667C8.33514 14.7833 9.54847 17.7117 11.7885 19.95L17.0668 24.6367ZM12.9285 4.595C14.8168 2.70667 17.3285 1.66667 20.0001 1.66667C22.6718 1.66667 25.1818 2.70667 27.0701 4.595C28.9601 6.48333 30.0001 8.995 30.0001 11.6667C30.0001 14.3383 28.9601 16.8483 27.1068 18.7033L21.7685 23.445C20.7935 24.4 19.2068 24.3983 18.2018 23.4167L12.9285 18.7367C9.03014 14.8383 9.03014 8.49333 12.9285 4.595ZM20.0001 16.6333C22.7468 16.6333 24.9835 14.3983 24.9835 11.65C24.9835 8.90167 22.7468 6.66667 20.0001 6.66667C17.2535 6.66667 15.0168 8.90167 15.0168 11.65C15.0168 14.3983 17.2518 16.6333 20.0001 16.6333ZM20.0001 8.33333C21.8301 8.33333 23.3168 9.82167 23.3168 11.65C23.3168 13.4783 21.8285 14.9667 20.0001 14.9667C18.1718 14.9667 16.6835 13.4783 16.6835 11.65C16.6835 9.82167 18.1718 8.33333 20.0001 8.33333Z" fill="#D12923"/>
</g>
<defs>
<clipPath id="clip0_49_19458">
<rect width="40" height="40" fill="white"/>
</clipPath>
</defs>
</svg>
