<svg width="30" height="40" viewBox="0 0 30 40" fill="none" xmlns="http://www.w3.org/2000/svg">
<path d="M29.8499 12.855C28.9299 6.22663 23.4282 0.864961 16.7666 0.101628C12.5916 -0.378372 8.53491 0.836628 5.34824 3.51829C2.20324 6.16496 0.263241 10.0283 0.0265745 14.1183C-9.21972e-05 14.5783 0.349908 14.9733 0.809908 14.9983C1.26991 15.035 1.66324 14.675 1.68991 14.215C1.89991 10.5783 3.62491 7.14496 6.42157 4.79163C9.25324 2.40996 12.8599 1.32829 16.5766 1.75829C22.4932 2.43496 27.3816 7.19829 28.1999 13.0833C28.5199 15.395 28.2516 17.7366 27.4216 19.855C26.6082 21.935 24.4616 23.3333 22.0799 23.3333H17.8849C18.1699 22.8433 18.3332 22.2733 18.3332 21.6666C18.3332 19.8283 16.8382 18.3333 14.9999 18.3333C13.1616 18.3333 11.6666 19.8283 11.6666 21.6666C11.6666 23.505 13.1616 25 14.9999 25H22.0799C25.1399 25 27.9116 23.1766 28.9749 20.4633C29.9082 18.0766 30.2099 15.4466 29.8499 12.855ZM13.3332 21.6666C13.3332 20.7466 14.0816 20 14.9999 20C15.9182 20 16.6666 20.7466 16.6666 21.6666C16.6666 22.5866 15.9182 23.3333 14.9999 23.3333C14.0816 23.3333 13.3332 22.5866 13.3332 21.6666ZM22.4249 18.7866C23.0266 17.6083 23.3332 16.335 23.3332 15C23.3332 10.405 19.5949 6.66663 14.9999 6.66663C10.4049 6.66663 6.66657 10.405 6.66657 15C6.66657 16.9316 7.34324 18.815 8.57157 20.3033C8.86491 20.6583 8.81491 21.1833 8.45991 21.4766C8.30491 21.605 8.11657 21.6666 7.92991 21.6666C7.68991 21.6666 7.45157 21.5633 7.28657 21.3633C5.81324 19.5783 4.99991 17.3183 4.99991 15C4.99991 9.48496 9.48491 4.99996 14.9999 4.99996C20.5149 4.99996 24.9999 9.48496 24.9999 15C24.9999 16.6016 24.6332 18.1316 23.9099 19.5466C23.6982 19.9566 23.1916 20.1166 22.7882 19.91C22.3782 19.7 22.2149 19.195 22.4249 18.7866ZM28.3149 38.9966C28.4099 39.4483 28.1199 39.8883 27.6682 39.9816C27.2266 40.0833 26.7766 39.7883 26.6832 39.335C25.5566 33.925 20.6432 29.9983 14.9982 29.9983C9.35324 29.9983 4.43991 33.9233 3.31491 39.335C3.23324 39.7283 2.88657 39.9983 2.49991 39.9983C2.44324 39.9983 2.38657 39.9933 2.32991 39.98C1.87824 39.8866 1.58991 39.4466 1.68324 38.995C2.96824 32.815 8.56824 28.3316 14.9999 28.3316C21.4316 28.3316 27.0299 32.815 28.3149 38.995V38.9966Z" fill="#D12923"/>
</svg>
