<svg width="32" height="32" viewBox="0 0 32 32" fill="none" xmlns="http://www.w3.org/2000/svg">
<circle cx="16" cy="16" r="16" fill="#0EAD31"/>
<path d="M10.6075 18.0159L14.4297 21.8292C14.7628 22.1603 15.2134 22.3462 15.6831 22.3462C16.1527 22.3462 16.6033 22.1603 16.9364 21.8292L20.7586 18.0159C20.9242 17.8493 21.0171 17.6241 21.0171 17.3892C21.0171 17.1544 20.9242 16.9291 20.7586 16.7626C20.676 16.6792 20.5777 16.6131 20.4693 16.568C20.361 16.5229 20.2448 16.4996 20.1275 16.4996C20.0102 16.4996 19.894 16.5229 19.7857 16.568C19.6773 16.6131 19.579 16.6792 19.4964 16.7626L16.5719 19.687V9.90923C16.5719 9.67348 16.4783 9.44739 16.3116 9.28069C16.1449 9.11399 15.9188 9.02034 15.6831 9.02034C15.4473 9.02034 15.2212 9.11399 15.0545 9.28069C14.8878 9.44739 14.7942 9.67348 14.7942 9.90923V19.687L11.8697 16.7626C11.7035 16.5952 11.4776 16.5007 11.2418 16.4998C11.0059 16.499 10.7793 16.5919 10.6119 16.7581C10.4446 16.9243 10.3501 17.1502 10.3492 17.3861C10.3484 17.622 10.4413 17.8485 10.6075 18.0159Z" fill="white"/>
</svg>
